<?xml version="1.0" encoding="UTF-8" standalone="no"?>
<!DOCTYPE svg PUBLIC "-//W3C//DTD SVG 1.1//EN" "http://www.w3.org/Graphics/SVG/1.1/DTD/svg11.dtd">
<svg xmlns="http://www.w3.org/2000/svg" xmlns:xlink="http://www.w3.org/1999/xlink" version="1.1" width="224.87999pt" height="150pt" viewBox="0 0 224.87999 150">
<g enable-background="new">
<clipPath id="cp0">
<path transform="matrix(.24,0,0,.24,0,0)" d="M 0 0 L 937.5 0 L 937.5 625 L 0 625 Z " fill-rule="evenodd"/>
</clipPath>
<g clip-path="url(#cp0)">
<path transform="matrix(.75,0,0,.75,0,0)" d="M 0 0 L 300 0 L 300 200 L 0 200 Z " fill="none"/>
<path transform="matrix(.75,0,0,.75,0,0)" d="M 0 0 L 300 0 L 300 200 L 0 200 Z " fill="none"/>
</g>
<clipPath id="cp1">
<path transform="matrix(.24,0,0,.24,0,0)" d="M 84.375 93.75 L 440.625 93.75 L 440.625 184.375 L 84.375 184.375 Z " fill-rule="evenodd"/>
</clipPath>
<g clip-path="url(#cp1)">
<path transform="matrix(.75,0,0,.75,20.25,22.5)" d="M 4.773 .91700008 L 4.773 23.963 L 13.111 23.963 L 13.111 27.939 L .333 27.939 L .333 .91700008 L 4.7730004 .91700008 L 4.773 .91700008 Z M 28.783 12.382 L 28.783 9.95 L 32.991 9.95 L 32.991 27.939999 L 28.784 27.939999 L 28.784 25.506999 C 28.217001 26.407998 27.414 27.115998 26.371 27.629998 C 25.329 28.144997 24.28 28.401997 23.225 28.401997 C 21.86 28.401997 20.612 28.151997 19.48 27.649996 C 18.364844 27.163786 17.393176 26.475119 16.564999 25.583996 C 15.746001 24.699336 15.116001 23.696003 14.674998 22.573996 C 14.215157 21.40767 13.9894909 20.197669 13.997998 18.943997 C 13.997998 17.683997 14.222999 16.479996 14.673998 15.333996 C 15.112281 14.204139 15.742614 13.1941399 16.564999 12.303996 C 17.393406 11.413435 18.365073 10.725102 19.48 10.2389969 C 20.612 9.736997 21.86 9.486997 23.224999 9.486997 C 24.279999 9.486997 25.328999 9.743997 26.370999 10.258997 C 27.412999 10.773997 28.217 11.480997 28.783999 12.381997 L 28.783 12.382 Z M 28.397002 21.145 C 28.658253 20.43493 28.787253 19.701598 28.784 18.945 C 28.784 18.171999 28.654002 17.439 28.397002 16.744999 C 28.153605 16.070614 27.793604 15.465613 27.317002 14.929998 C 26.840786 14.404117 26.280787 13.992116 25.637001 13.693998 C 24.981 13.385999 24.254002 13.230998 23.457 13.230998 C 22.658 13.230998 21.937 13.385998 21.294 13.693998 C 20.658488 13.9956259 20.105154 14.407625 19.634 14.929998 C 19.15856 15.463313 18.805228 16.06798 18.574002 16.743998 C 18.324818 17.45617 18.20215 18.189503 18.206002 18.943999 C 18.206002 19.715998 18.328001 20.449999 18.573002 21.144 C 18.817002 21.839999 19.171002 22.443999 19.635003 22.959 C 20.105977 23.481612 20.65931 23.89361 21.295002 24.195 C 21.937003 24.504 22.658003 24.657999 23.456002 24.657999 C 24.254 24.657999 24.981 24.504 25.637001 24.195 C 26.28097 23.897131 26.840971 23.485133 27.317002 22.959 C 27.7936 22.423752 28.153599 21.819087 28.397002 21.145 Z M 36.311 27.939002 L 36.311 9.95 L 47.738 9.95 L 47.738 14.091 L 40.517999 14.091 L 40.517999 27.941 L 36.310998 27.941 L 36.311 27.939002 Z M 62.986 12.382001 L 62.986 9.95 L 67.194 9.95 L 67.194 27.939999 L 62.986 27.939999 L 62.986 25.506999 C 62.42 26.407998 61.616 27.115998 60.572999 27.629998 C 59.531 28.144997 58.482999 28.401997 57.427 28.401997 C 56.063 28.401997 54.815 28.151997 53.683 27.649996 C 52.56784 27.163788 51.596174 26.47512 50.767999 25.583996 C 49.94864 24.699418 49.318307 23.696084 48.877 22.573996 C 48.417509 21.4076 48.192174 20.197602 48.201 18.943997 C 48.201 17.683997 48.426 16.479996 48.877 15.333996 C 49.314977 14.204221 49.944978 13.1942219 50.767 12.303996 C 51.595708 11.413318 52.567708 10.724984 53.683 10.2389969 C 54.815 9.736997 56.063 9.486997 57.427 9.486997 C 58.482 9.486997 59.531 9.743997 60.572999 10.258997 C 61.615999 10.773997 62.42 11.480997 62.986 12.381997 L 62.986 12.382001 Z M 62.6 21.145 C 62.860906 20.43487 62.989576 19.701537 62.986 18.945 C 62.986 18.171999 62.856 17.439 62.6 16.744999 C 62.356599 16.070616 61.996599 15.465615 61.519998 14.929998 C 61.04378 14.404117 60.48378 13.992116 59.839998 13.693998 C 59.184 13.385999 58.455999 13.230998 57.658998 13.230998 C 56.860998 13.230998 56.139997 13.385998 55.496999 13.693998 C 54.86148 13.9956259 54.308149 14.407625 53.836999 14.929998 C 53.361196 15.463227 53.007528 16.067894 52.775999 16.743998 C 52.527154 17.456227 52.40482 18.18956 52.408998 18.943999 C 52.408998 19.715998 52.529996 20.449999 52.775999 21.144 C 53.019998 21.839999 53.373998 22.443999 53.836999 22.959 C 54.307973 23.481612 54.861307 23.89361 55.496999 24.195 C 56.14 24.504 56.860998 24.657999 57.658998 24.657999 C 58.455999 24.657999 59.184 24.504 59.839998 24.195 C 60.483968 23.897131 61.043966 23.485133 61.519998 22.959 C 61.996595 22.423754 62.356595 21.819087 62.6 21.145 Z M 84.063 9.95 L 88.325008 9.95 L 81.42 27.94 L 76.13 27.94 L 69.224 9.95 L 73.486 9.95 L 78.775 23.726 L 84.063 9.95 Z M 97.503009 9.4869999 C 103.23201 9.4869999 107.13901 14.565 106.40501 20.508 L 92.446 20.508 C 92.446 22.06 94.013 25.06 97.734 25.06 C 100.934 25.06 103.079 22.244999 103.08 22.243 L 105.923007 24.443 C 103.381008 27.156 101.3 28.403 98.041 28.403 C 92.218 28.403 88.270999 24.719 88.270999 18.945 C 88.270999 13.722 92.35 9.4869999 97.502 9.4869999 L 97.503009 9.4869999 Z M 92.45701 17.381 L 102.54101 17.381 C 102.51001 17.035 101.963008 12.829 97.46901 12.829 C 92.97401 12.829 92.489009 17.035 92.45701 17.381 Z M 109.145008 27.939 L 109.145008 .91700008 L 113.353008 .91700008 L 113.353008 27.939 L 109.145008 27.939 Z " fill="#ff2d20" fill-rule="evenodd"/>
</g>
<clipPath id="cp2">
<path transform="matrix(.24,0,0,.24,0,0)" d="M 0 0 L 937.5 0 L 937.5 625 L 0 625 Z " fill-rule="evenodd"/>
</clipPath>
<g clip-path="url(#cp2)">
<symbol id="font_3_17">
<path d="M .512 .62900009 C .51933339 .6343334 .52400007 .6416667 .526 .651 C .526 .6576667 .521 .66600009 .51100006 .67600008 L .49600003 .68700006 L .50000008 .70400008 L .51000007 .73300006 C .51000007 .7403334 .50600007 .7483334 .498 .757 C .49066667 .7656667 .48233334 .77033337 .47300003 .771 C .46833337 .7710001 .4643334 .76933339 .46100004 .76600006 C .44700004 .75200006 .4283333 .7420001 .405 .73600009 C .39366666 .7333334 .38266669 .73133346 .372 .73 C .362 .7286667 .35033334 .728 .337 .72800007 L .314 .72800007 C .30200003 .728 .2936667 .7286667 .289 .73 L .244 .72800007 L .18800001 .7260001 L .17300001 .7260001 L .16300002 .7260001 L .14800002 .72900006 C .14266669 .72900006 .13766669 .73133346 .13300002 .73600009 C .124333348 .7453334 .115666668 .75200006 .107 .75600007 C .099 .76066669 .090333338 .7636667 .081 .76500007 C .071666669 .76500007 .063 .761 .055 .753 C .048999996 .74500009 .044999999 .7376668 .042999999 .73100009 C .044999999 .715 .055666668 .7036667 .075 .697 C .061666669 .68833336 .051999999 .68 .045999998 .67200008 C .042666664 .6653334 .041 .65566679 .041 .64300009 C .041 .6283334 .05 .62100008 .068 .62100008 C .075333338 .62100008 .082 .62233337 .088 .62500008 L .115 .64300009 C .12633334 .65233346 .15000002 .6613334 .18600002 .67 C .22266668 .6793334 .25800003 .684 .292 .684 C .312 .684 .334 .68100008 .358 .6750001 L .433 .651 C .44033335 .64300009 .44933335 .6360001 .46 .63000008 C .466 .6273334 .47600005 .6246667 .49000005 .62200006 C .49800004 .62200006 .50533339 .6243334 .512 .62900009 M .50400009 .08100001 C .5086667 .08100001 .512 .086 .51400008 .09600001 C .51400008 .105333339 .50900009 .11466667 .49900005 .124000009 C .489 .13333334 .479 .16533333 .469 .22 C .467 .236 .4643334 .25733335 .46100004 .284 C .45766668 .31066669 .456 .3286667 .456 .33800004 C .46400003 .34800003 .46800003 .3586667 .46800003 .37000004 C .46800003 .37600006 .466 .3806667 .462 .38400004 C .45800004 .388 .45333336 .39100004 .448 .39300005 C .4446667 .39300005 .43933336 .388 .432 .37800003 L .42900003 .37100003 L .40800003 .37500004 L .387 .37800003 C .375 .37600003 .36900006 .36833335 .36900003 .35500003 L .372 .34500004 C .38 .33233337 .38933335 .3113334 .4 .28200004 L .41300003 .23300001 L .42200003 .19600001 C .426 .17666666 .428 .16066666 .428 .148 C .428 .13866668 .42633335 .13066668 .423 .124000009 L .416 .098000008 C .416 .08533334 .42200003 .079 .43400003 .079 C .43600003 .080333348 .43766666 .08133334 .439 .08200001 C .4416667 .084000017 .44566668 .08800001 .451 .094000007 L .456 .10100001 C .45933334 .10166667 .46633337 .09866667 .477 .09200001 C .4883333 .086 .49733339 .082333337 .50400009 .08100001 M .364 .37600003 L .37 .38300003 C .37333334 .3856667 .37933336 .388 .388 .39000003 L .40100003 .38700003 C .40300004 .39300005 .40100003 .39733339 .395 .40000005 L .375 .40400005 C .35566668 .40800003 .3216667 .421 .273 .44300003 C .22500003 .46500004 .19333335 .48233334 .17800002 .495 C .17600002 .5056667 .17033334 .51466676 .16100002 .522 C .15366668 .53000006 .14433335 .5343334 .13300002 .535 C .121000017 .53300008 .115 .527 .115 .517 C .115 .51033338 .11666667 .5043333 .12 .499 L .12600002 .49100007 L .114 .47600005 C .10933334 .47333337 .10566667 .46966673 .103 .46500004 L .1 .44800005 C .1 .43933336 .10133334 .43233336 .104 .42700003 C .10733334 .42233337 .112333338 .41966669 .11900001 .41900004 L .14500001 .41800005 C .15566668 .41800008 .16800003 .4156667 .18200001 .41100005 C .19000001 .4096667 .20200002 .40533338 .21800001 .39800004 C .22866668 .39600004 .23866667 .3926667 .24800001 .38800005 L .28 .37500004 C .308 .36300005 .32533334 .35033337 .33200003 .337 C .33466665 .33100004 .33833335 .32633338 .343 .323 L .36 .31900005 L .37100003 .32000003 C .36166669 .32800005 .357 .3393334 .357 .35400004 C .357 .364 .3593333 .37133337 .364 .37600003 M .503 .04 C .503 .046666668 .4976667 .05566667 .48700003 .06700001 C .4776667 .079 .47000004 .086 .46400003 .08800001 C .46 .08800001 .45433335 .08433334 .447 .07700001 C .441 .069000009 .43533335 .065000008 .43 .065000008 C .42533336 .065000008 .42233334 .065666679 .421 .06700001 L .411 .07700001 L .405 .09900001 C .405 .10833334 .40566669 .11433334 .407 .117000009 C .40833334 .12233334 .41166667 .12966667 .417 .139 C .411 .12900001 .3876667 .11900001 .347 .109000008 C .30633334 .09900001 .27400003 .094000007 .25 .094000007 L .22500001 .095000009 C .21633335 .095000009 .20766668 .09633335 .19900002 .09900001 C .1696667 .10433334 .14433335 .113666679 .123 .127 L .1 .154 C .093333337 .16266667 .08866667 .16766668 .086 .169 C .082666669 .171 .079 .172 .075 .172 C .065000008 .172 .055666668 .16766668 .047 .15900001 C .038333335 .15033333 .034 .14066667 .034 .13 L .035000005 .10400001 C .036333335 .09733334 .039 .090666677 .042999999 .08400001 L .03 .07400001 C .023333334 .06733334 .019000002 .059333337 .016999999 .05 C .016999999 .042 .022 .033999999 .031999999 .026 C .03666667 .023333334 .044 .021 .053999999 .019000002 C .064 .019000002 .07366667 .021 .083000008 .024999999 C .093 .029666668 .10233334 .037333337 .11100001 .048 C .117000009 .049333335 .13133334 .047000003 .15400002 .041 C .17666668 .035 .19633335 .030333335 .21300002 .026999999 C .23033335 .023666665 .245 .022 .257 .022 C .263 .022 .26766668 .022 .271 .022 C .27633334 .022 .2836667 .022666669 .293 .024 C .30366669 .023999999 .319 .026666666 .33900003 .032 L .381 .04 L .409 .044 C .41966669 .044 .42666666 .042333336 .43 .039 C .44800005 .025 .46366669 .018 .477 .018 C .48366667 .018 .48933337 .019666667 .494 .022999999 C .49866668 .027 .5016667 .032666666 .503 .04 M .15300001 .64800009 L .136 .64100006 L .113 .628 C .09433333 .616 .080000009 .6106667 .07 .61200007 C .07 .57600006 .06633333 .546 .059 .522 L .052 .507 L .027 .47500003 L .024000003 .46500004 C .024000003 .45166669 .03066667 .4436667 .044 .44100005 L .064 .44000004 L .089 .43900005 L .086 .45400004 C .086 .46400003 .090333338 .47333337 .099 .48200003 L .108 .49 L .116000007 .49300004 C .108666669 .49833337 .104 .50600007 .102000009 .51600006 C .102000009 .5213334 .106000009 .52900007 .114 .53900006 L .128 .56600007 C .14 .61800006 .14833336 .64533337 .15300001 .64800009 M .014999999 .13 C .014999998 .14666666 .021333332 .161 .034 .17300001 C .04733333 .185 .064 .191 .084 .191 C .09600001 .191 .10766667 .18233334 .11900001 .165 C .12500002 .153 .13033335 .14566668 .135 .143 C .14366669 .13633333 .16000001 .12900001 .18400002 .121000017 C .20933335 .11566668 .23133333 .113000009 .25 .113000009 C .2846667 .113000009 .318 .117000009 .35 .125 C .3906667 .135 .411 .15100001 .411 .17300001 C .411 .18300002 .40633337 .204 .397 .236 L .37800003 .30300004 L .357 .30300004 C .34300003 .30300004 .332 .30800004 .324 .31800003 L .304 .344 C .294 .35200004 .272 .36300005 .23800002 .37700004 L .16200002 .40300004 C .15666668 .405 .15066667 .4046667 .14400001 .40200005 L .13200002 .39900003 L .116000007 .40200005 L .102000009 .41000004 C .09933334 .41133336 .09666667 .41600005 .094000007 .42400003 L .067 .42300005 C .050333337 .423 .036333335 .42500005 .025 .42900003 C .013666667 .433 .007999999 .4433334 .007999999 .46000005 C .007999999 .4726667 .012999999 .48600007 .023 .50000008 C .045 .52800008 .056000007 .5633334 .056 .60600009 L .035000005 .62100008 C .026333338 .6283334 .022000002 .63933339 .022000002 .65400007 C .022000002 .66800007 .025333336 .67833349 .031999999 .68500009 L .042999999 .69500008 L .033 .71300008 C .029 .7196667 .026333334 .7286667 .025 .74000009 C .025 .7513334 .030999998 .7616667 .042999999 .771 C .054999997 .77900007 .07 .78300008 .088 .78300008 C .10133334 .78300008 .11533334 .776 .13000001 .762 C .14466667 .7480001 .15966667 .741 .17500001 .74100008 L .274 .74300006 L .386 .74500009 L .398 .7490001 L .42400003 .76500007 C .44533334 .77900007 .46233336 .7860001 .47500003 .7860001 C .4916667 .7860001 .50466677 .78033336 .51400008 .76900008 C .52400007 .75766679 .52900007 .744 .52900007 .72800007 C .52900007 .71866676 .5273334 .71133336 .52400007 .70600005 L .517 .69200006 C .5236667 .688 .52900007 .6830001 .53300008 .67700007 C .537 .671 .54 .66233339 .54200008 .651 L .54 .63900008 C .536 .6243334 .53000006 .6143334 .5220001 .609 C .51466676 .6043334 .504 .60200008 .49000005 .60200008 C .47533337 .60200008 .46266667 .6046667 .45200003 .61 C .44133339 .616 .432 .6236667 .42400003 .633 C .41200004 .6383334 .39100004 .64533337 .361 .65400007 C .33166669 .66333338 .30866669 .66800007 .292 .66800007 L .23800002 .66300007 C .19866669 .66300007 .17300003 .64800009 .16100002 .61800006 L .14400001 .55600008 C .15466668 .55133339 .16533335 .54300007 .17600002 .531 L .20200002 .50000008 C .21600002 .48600007 .24533336 .46933339 .29 .45000003 L .337 .43300004 L .391 .41500003 L .40800003 .41000004 C .41 .4086667 .41466669 .40033338 .42200003 .38500003 C .42200003 .39633338 .42866669 .40333335 .442 .40600003 C .454 .40800003 .46366669 .40433336 .47100003 .39500005 C .47833336 .3856667 .48200003 .37400005 .48200003 .36 C .48200003 .344 .47833336 .33400003 .47100003 .33 C .47100006 .30400003 .474 .2726667 .48 .236 C .48599998 .2 .48966668 .18133335 .49100004 .18 L .50100007 .148 C .5030001 .14333333 .50900009 .135 .51900008 .123 C .527 .113666679 .531 .102000009 .531 .08800001 C .531 .07733334 .5273333 .07066667 .52000007 .068 C .512 .068 .5066667 .06733334 .50400009 .06600001 L .51600006 .053 C .52000007 .049 .5220001 .043666673 .5220001 .037 C .5220001 .028333335 .5160001 .020000002 .50400009 .012000001 C .49066673 .005333333 .47866667 .0019999995 .46800003 .0019999995 C .45733337 .0019999995 .4466667 .005666667 .43600003 .013000001 C .42533336 .021 .41400004 .025999999 .402 .028 C .3866667 .028000003 .363 .023666667 .331 .015 C .299 .0069999995 .27466668 .0029999996 .25800003 .0029999996 L .23100002 .0039999999 L .20200002 .010000001 L .12500002 .030000002 C .11566668 .021333335 .107 .015333335 .099 .012000001 C .085 .004 .071666669 0 .059 0 L .038000004 .0010000002 C .028000003 .0029999999 .019666667 .008666666 .012999998 .018 L .004999999 .032 C .0029999999 .036666667 .0013333336 .043666666 0 .053 C 0 .06233334 .0036666666 .07033334 .011 .07700001 L .022000002 .087000008 L .014999999 .113000009 L .014999999 .13 Z "/>
</symbol>
<symbol id="font_3_29">
<path d="M .23900002 .70800009 C .23700004 .7180001 .2296667 .7263334 .21700001 .73300006 L .20200002 .74100008 L .185 .744 L .17900002 .744 L .174 .74200007 C .16266667 .7386667 .15366668 .73333337 .14700002 .726 L .12800002 .70600005 L .099 .73 C .08033333 .74466678 .064666669 .75200006 .052 .75200006 L .034 .749 C .028000003 .749 .020666669 .7426667 .012000002 .73 C .0040000008 .718 0 .7046667 0 .69000008 C 0 .68 .0016666669 .67 .005000001 .66 C .008333335 .6506667 .016666668 .638 .030000002 .62200006 C .044000005 .60666677 .052666677 .59433338 .056 .58500006 L .064 .555 L .07 .52000007 L .074 .49200005 L .075 .45800004 L .074 .425 L .074 .39300005 L .07300001 .27300004 L .072000008 .16600001 C .06800001 .15333335 .060000004 .13900002 .048 .12300001 C .024000003 .09300002 .011000001 .07400001 .009 .066 L .0069999995 .053 C .0069999995 .040333336 .013 .028000003 .025000003 .016000003 C .037666669 .005333334 .052 0 .068 0 C .09200001 0 .11200001 .012333334 .12800002 .037000006 C .13533335 .026333338 .145 .017333335 .157 .010000002 C .16900002 .0046666676 .18100001 .0013333336 .19300002 0 C .20366669 0 .21266668 .0040000008 .22 .012000002 C .22733335 .020666669 .231 .034000007 .231 .052000006 C .231 .07400001 .22366667 .09233334 .20900002 .10700001 C .19433336 .12233335 .18433334 .13866668 .17900002 .15600002 L .176 .19500001 L .171 .22600001 L .16800002 .29200004 L .155 .30800004 C .149 .316 .146 .3236667 .146 .33100004 C .146 .34300003 .15333334 .35666669 .16800002 .372 L .16800002 .39800004 L .167 .441 L .167 .48200006 L .167 .512 C .167 .526 .16766668 .53733339 .169 .546 C .17033334 .5553333 .17166667 .56233337 .17300001 .56700006 C .17433334 .5716667 .17733336 .5816667 .18200001 .597 C .18400002 .60833337 .19466667 .62133339 .21400002 .63600006 C .23400001 .6513334 .24400002 .6666667 .24400002 .68200007 C .24400002 .69000008 .24233336 .69866678 .23900002 .70800009 M .206 .40300004 C .21333333 .39700005 .22100002 .39400003 .22900003 .39400003 L .24000001 .39600004 L .25200004 .40100003 L .24900002 .38500003 L .24800003 .37300004 C .24800003 .36433337 .25400005 .35300002 .26600004 .33900003 C .26733337 .33766667 .27233336 .336 .28100003 .33400003 C .28766669 .33400003 .29466669 .33800004 .30200003 .34600003 C .30933336 .354 .314 .36900006 .316 .39100004 C .3186667 .41300003 .35133339 .4543334 .41400004 .51500007 C .46000005 .559 .501 .5946667 .537 .62200006 C .555 .62200006 .57100006 .62500008 .585 .63100007 C .599 .637 .60700008 .6473334 .609 .66200008 C .611 .6726667 .60899999 .68133339 .603 .688 C .59966668 .6906667 .59166666 .693 .579 .69500008 L .564 .69400009 L .557 .69200006 C .55366668 .69600006 .54933336 .7033334 .544 .71400007 L .534 .734 C .5286667 .7406667 .52033337 .744 .509 .744 C .501 .744 .494 .74200007 .488 .73800006 C .482 .73600009 .47800002 .731 .47600005 .72300007 C .46600006 .693 .451 .66400006 .43100003 .63600006 L .39200003 .58800008 L .33200003 .51500007 C .30200003 .48300005 .27700005 .46800003 .25700004 .47000004 L .23700002 .472 C .2216667 .472 .21066667 .46866668 .204 .462 C .19800002 .456 .19500001 .44766674 .19500003 .43700005 L .19800002 .41600005 C .2 .41000007 .20266669 .4056667 .206 .40300004 M .603 .068 L .612 .083000008 L .616 .098000008 C .616 .10533335 .612 .11300001 .60400006 .12100001 L .592 .12500002 L .574 .12400001 L .547 .127 L .531 .13100001 L .509 .14100002 C .48033334 .15300001 .4436667 .17566669 .39900003 .20900002 C .3396667 .25300003 .31000004 .28966669 .31000004 .319 L .31100003 .33 C .28966669 .31933335 .27400003 .314 .26400004 .314 C .25266669 .314 .244 .319 .238 .32900004 C .23400001 .33900003 .23200004 .35433338 .23200003 .37500004 C .20933335 .37500004 .193 .37033335 .183 .36100004 C .17366667 .3516667 .16899999 .34133337 .169 .33 C .16899999 .32333336 .17066665 .31800003 .174 .314 C .182 .30400003 .18833335 .2976667 .19300002 .29500003 C .20500003 .28833337 .22100003 .28500004 .24100003 .28500004 L .37900005 .16900002 C .42500005 .12900001 .45033337 .08966667 .45500005 .051000004 C .45500005 .039666669 .46133337 .028000003 .474 .016000003 C .4866667 .0066666679 .4996667 .0020000004 .513 .0020000004 C .52099999 .0020000004 .52666667 .002666667 .53000006 .0040000008 L .544 .016000003 C .54733338 .020000002 .55 .027666668 .552 .039 C .552 .04566667 .55133339 .050333337 .55 .053 C .56533339 .053 .57600006 .054 .582 .056000007 C .5886667 .058000003 .59566667 .062000008 .603 .068 Z "/>
</symbol>
<symbol id="font_3_23">
<path d="M .587 .649 C .587 .66566666 .58466669 .67666676 .58000007 .68200007 L .558 .699 C .56333336 .70633336 .56700006 .715 .569 .725 C .569 .7296667 .5656667 .7353334 .559 .74200007 L .541 .75 L .524 .75200006 C .5126667 .75200006 .5026667 .75033339 .49400003 .74700006 L .469 .739 L .453 .734 L .43400003 .731 L .419 .731 L .352 .727 L .259 .72300007 L .246 .72300007 L .22900002 .725 L .23200001 .70600005 L .23400001 .695 C .23400001 .68700006 .231 .67866668 .22500001 .67 C .21966668 .662 .20733334 .651 .18800001 .637 C .20400001 .64433339 .23799999 .65133336 .29 .658 C .31133334 .66066667 .33433334 .66300007 .359 .665 C .38433335 .66700008 .40466667 .66800007 .42000003 .66800007 L .44500003 .667 L .46800003 .658 L .547 .611 C .555 .609 .56366667 .6116667 .573 .619 C .5823333 .62700006 .587 .637 .587 .649 M .568 .097 C .57600006 .10833334 .58000007 .11966667 .58000007 .13100001 C .58000007 .14100002 .5756667 .149 .56700006 .155 C .559 .161 .54933336 .164 .538 .164 C .53066667 .164 .52533337 .16266668 .522 .16000001 C .504 .14600002 .487 .135 .47100003 .127 C .44566668 .113000009 .426 .106000009 .412 .106000009 L .335 .10800001 L .277 .11 C .25233338 .10999999 .2336667 .111 .22100002 .113000009 C .20833336 .11566668 .19633335 .120333347 .18500002 .127 L .20700002 .09 C .21100001 .082 .21300002 .07266667 .21300002 .062000008 L .21200001 .037 L .257 .04 L .303 .041 L .361 .04 L .40800003 .04 L .433 .041 L .446 .04 L .463 .034 C .46966664 .032 .4793333 .027333335 .49200005 .020000002 C .50466677 .012666668 .51466676 .007666666 .522 .004999999 C .5313334 .004999999 .53900006 .008999999 .545 .016999999 C .55100008 .025 .554 .03566667 .554 .049000004 C .554 .05433334 .55633339 .064 .561 .078 L .568 .097 M .21100001 .712 C .209 .7206667 .20166667 .73 .18900001 .74 C .17633336 .7506667 .16433335 .757 .15300001 .759 L .14100002 .757 C .13833334 .75500008 .13633335 .75333335 .135 .75200006 C .12966669 .74733337 .12400001 .7416666 .11800001 .735 C .11466667 .7303333 .108666669 .726 .1 .722 C .09533334 .72 .088 .721 .078 .725 C .067999999 .72900006 .059333337 .731 .052 .731 C .02866667 .721 .017000003 .70633336 .017000003 .68700006 C .017000003 .68100008 .019000002 .672 .023 .66 L .037 .629 L .049000004 .606 L .062 .551 L .066 .49199999 L .065000008 .45000003 L .064 .409 L .061000006 .32 L .059 .27 L .065000008 .18200001 C .059666676 .16733335 .049666674 .15200001 .035000005 .136 C .021000004 .120666678 .011999999 .10733334 .007999999 .09600001 L .0040000008 .064 C .0040000008 .047999998 .007000001 .035 .013000002 .025 C .019000002 .015000001 .02866667 .01 .042000005 .01 C .05733334 .01 .07366667 .017333333 .091000009 .031999999 L .114 .012999998 C .12266668 .006333332 .13166668 .0019999992 .14100002 0 C .149 0 .16066669 .0076666667 .17600002 .023 C .186 .033000005 .19100003 .044666668 .19100002 .058000007 C .19100003 .06866667 .18766667 .08166667 .18100001 .097 L .15100001 .16900002 L .14800002 .20400001 L .14500001 .23800002 L .14700002 .26 L .14600002 .274 L .14600002 .281 L .14800002 .293 L .15 .343 L .15200001 .389 L .15100001 .41 L .14800002 .469 L .14500001 .524 L .14500001 .541 L .14800002 .568 L .14900002 .596 C .14900002 .6066666 .15066669 .6153333 .15400002 .62200006 C .15600002 .6333334 .16666669 .6436667 .18600002 .653 C .20600002 .6623333 .21600002 .674 .21600002 .688 C .21600002 .6953333 .21433336 .7033334 .21100001 .712 M .052 .47 C .03866667 .47 .028333337 .46733333 .021 .462 C .014333335 .45733334 .011000003 .44933335 .011000002 .438 C .012333336 .43533335 .01366667 .433 .015000002 .431 C .018333337 .42633335 .023000002 .42066667 .029000001 .414 C .035 .40733335 .038000004 .40100003 .038000004 .395 C .038000004 .391 .034 .38433335 .026000003 .375 C .010666668 .36233334 .0020000004 .35099999 0 .341 C 0 .33366669 .004666667 .32666669 .014 .32 C .024000003 .31399999 .033333336 .311 .042000005 .311 C .04666667 .32299999 .049000008 .34233333 .049000004 .36900003 L .052 .47 M .17000002 .356 L .21400002 .356 L .261 .357 L .33200003 .354 C .34933339 .354 .36566667 .35033334 .381 .343 L .416 .329 L .45400004 .319 C .46266667 .319 .4696667 .322 .47500003 .328 C .48033337 .33400003 .48400007 .3416667 .486 .351 C .48599998 .359 .48166666 .36733333 .473 .37600003 L .45900003 .385 C .45900003 .39166666 .46033336 .3976667 .463 .403 L .473 .431 C .47299997 .44099999 .46966664 .44966666 .463 .45700003 C .4563333 .46433334 .44733335 .46800003 .43600003 .468 L .42400003 .465 C .39466668 .451 .36333335 .44099999 .33 .435 L .263 .42700003 L .19000001 .423 L .16800002 .42200003 L .16800002 .386 C .16800003 .37066666 .16866668 .36066667 .17000002 .356 Z "/>
</symbol>
<symbol id="font_3_2a">
<path d="M .23900002 .7120001 C .23700004 .72 .23033338 .72733339 .21900001 .734 C .20833333 .7406667 .19766669 .744 .187 .744 L .169 .74000009 C .16033335 .7380001 .15300001 .73433336 .14700002 .72900006 L .12800002 .71000006 L .089 .73800006 C .07633334 .7453334 .064666669 .7490001 .054000006 .7490001 L .035000005 .74600008 C .027000003 .7453334 .019000002 .7393334 .011 .72800007 C .0036666666 .7173334 0 .7053334 0 .69200006 C 0 .6826667 .0016666669 .67333337 .005000001 .66400006 C .008333335 .6546667 .016666668 .642 .030000002 .62600007 C .044000005 .6106667 .052666677 .59833338 .056 .58900007 L .064 .559 L .07 .52400007 L .074 .49600006 L .075 .46200005 L .074 .42900003 L .074 .39700005 L .07300001 .27700005 L .072000008 .17 C .06800001 .15733333 .060000004 .143 .048 .127 C .024000003 .097 .011000001 .07800001 .009 .07000001 L .0069999995 .057000005 C .0069999995 .04433334 .013 .032 .025000003 .020000006 C .037666669 .009333337 .052 .0040000027 .068 .0040000027 C .09200001 .0040000027 .11200001 .016333338 .12800002 .04100001 C .13533335 .03033334 .145 .021333337 .157 .014000004 C .16900002 .00866667 .18100001 .005333336 .19300002 .0040000027 C .20366669 .0040000027 .21266668 .008000003 .22 .016000005 C .22733335 .024666673 .231 .038000008 .231 .05600001 C .231 .07800001 .22366667 .09633335 .20900002 .11100001 C .19433336 .12633334 .18433334 .14266669 .17900002 .16000001 L .17000002 .27 L .16800002 .40200005 L .167 .44500003 L .167 .48600007 L .167 .51600006 C .167 .53000006 .16766668 .5413334 .169 .55 C .17033334 .5593333 .17166667 .56633338 .17300001 .57100006 C .17433334 .5756667 .17733336 .5856667 .18200001 .601 C .18400002 .61233338 .19466667 .62533339 .21400002 .64000007 C .23400001 .65533336 .24400002 .6706667 .24400002 .68600007 C .24400002 .69400009 .24233336 .70266678 .23900002 .7120001 M .24800003 .031000006 C .25333337 .03566667 .26533333 .040000004 .284 .044000009 L .34500004 .048000009 L .397 .047000007 C .40500007 .047000007 .41433338 .04666667 .42500005 .046000005 C .4363334 .04533334 .4486667 .04400001 .46200005 .042000005 C .47533337 .042000008 .488 .041000006 .5 .039000006 C .5013333 .039000006 .514 .036000004 .538 .030000003 C .54466667 .02266667 .55366668 .015333337 .565 .008000003 C .57100006 .005333336 .58100005 .002666669 .595 .0000000018626452 C .603 .0000000018626452 .6106667 .002666669 .61800006 .008000003 C .626 .014000003 .63033339 .021333337 .631 .030000003 C .631 .03866667 .62466666 .048333337 .612 .059000009 L .602 .065000008 L .612 .08800001 C .614 .09400001 .615 .10166668 .615 .11100001 C .615 .121 .6116667 .12966667 .605 .13700001 C .59833338 .14433335 .58933338 .148 .578 .148 L .566 .14500001 C .54066666 .13233334 .516 .12233334 .492 .11500002 L .45500005 .10500001 L .41700004 .09900001 C .40166668 .09900001 .39166669 .09833334 .38700003 .09700001 L .36 .09700001 L .284 .10000001 C .2626667 .102000009 .24500002 .106333348 .231 .11300001 C .237 .107000019 .24200003 .09900001 .24600002 .08900001 C .25000004 .079 .25200004 .068333338 .25200004 .057000005 C .25200004 .04766667 .2506667 .039000006 .24800003 .031000006 Z "/>
</symbol>
<symbol id="font_3_32">
<path d="M .382 .70800009 C .38 .7180001 .3726667 .7263334 .36 .73300006 L .345 .74100008 L .328 .7440001 L .322 .7440001 L .317 .74200007 C .3056667 .7386667 .29666666 .7333334 .29 .7260001 L .271 .70600005 L .24200003 .7300001 C .22333336 .74466678 .20766668 .75200006 .19500001 .75200006 L .17700002 .7490001 C .171 .7490001 .16366668 .7426667 .15500002 .7300001 C .14700002 .7180001 .143 .7046668 .143 .69000008 C .143 .68000009 .14466667 .6700001 .148 .6600001 C .15133335 .6506667 .15966667 .638 .17300001 .62200006 C .18699999 .60666677 .19566667 .59433338 .19900002 .58500006 L .20700002 .55500009 L .21300002 .52000007 L .21700001 .492 L .21800001 .458 L .21700001 .425 L .21700001 .393 L .216 .273 L .21500002 .16600001 C .21100001 .15333334 .20300001 .139 .19100002 .123 C .16700001 .093 .15400002 .07400001 .15200001 .06600001 L .15 .053000004 C .15 .040333336 .156 .028000003 .16800002 .016 C .18066669 .0053333339 .19500001 0 .21100001 0 C .23500002 0 .25500003 .0123333339 .271 .037 C .27833335 .026333338 .28800003 .017333337 .3 .01 C .312 .004666667 .324 .0013333336 .336 0 C .34666667 0 .35566668 .004 .363 .012 C .37033335 .020666667 .37399999 .034000007 .374 .05200001 C .37399999 .07400001 .36666668 .09233334 .352 .107 C .33733336 .122333329 .32733334 .13866668 .322 .156 L .313 .266 L .311 .398 L .31 .441 L .31 .48200003 L .31 .512 C .31 .526 .31066669 .5373334 .312 .54600009 C .31333337 .5553334 .31466667 .5623334 .316 .56700006 C .31733335 .5716667 .32033334 .5816667 .325 .59700009 C .327 .6083334 .33766667 .6213334 .357 .63600006 C .377 .6513334 .387 .6666667 .387 .68200007 C .387 .69000008 .38533334 .69866678 .382 .70800009 M .134 .70800009 C .123333338 .71000006 .11500001 .71300008 .10900001 .71700009 L .08500001 .73200008 L .061000006 .74500009 C .049000008 .7510001 .03866667 .754 .030000003 .75400009 C .022000002 .754 .01566667 .75033339 .011000002 .74300006 C .006333333 .73566678 .0029999994 .7253334 .0010000002 .7120001 C .0010000002 .7060001 .004 .6973334 .01 .68600007 L .026000003 .66800007 L .01 .65400007 C .0033333332 .64533337 0 .63533338 0 .6240001 L .0030000006 .60700008 C .0049999996 .59766677 .013666667 .59300008 .029000001 .59300008 C .038333339 .59300008 .04666667 .5946667 .054000006 .59800007 L .072000008 .60600009 L .083000008 .6140001 C .08766667 .6173334 .09666667 .62066677 .110000018 .6240001 L .15400002 .63100007 C .14666668 .6363334 .14066668 .6433334 .136 .65200009 C .13133334 .66066679 .12900001 .6700001 .12900001 .68000009 C .12900001 .6913335 .13066668 .7006667 .134 .70800009 M .38300003 .6420001 L .416 .64100006 C .42266668 .64100006 .42933334 .64100006 .43600003 .64100006 C .44266669 .63900008 .44733335 .63766679 .45000003 .6370001 L .489 .62900009 C .503 .6130001 .5186667 .6050001 .536 .6050001 C .54266676 .6050001 .55 .60766676 .558 .61300006 C .56666669 .619 .572 .6266667 .57400009 .63600006 C .57400009 .6426667 .56900009 .652 .559 .66400006 L .55100008 .6700001 L .563 .6880001 C .5670001 .6960001 .56900009 .7036667 .56900009 .7110001 C .56900009 .721 .56400009 .7290001 .554 .7350001 L .53700008 .74100008 L .51600006 .7440001 L .48499999 .73700007 C .44833336 .7263334 .4186667 .71900007 .396 .71500006 C .40133334 .7063334 .404 .6963334 .404 .68500009 C .404 .67566677 .40233336 .66766676 .39900003 .6610001 C .39633335 .6543334 .39100004 .64800009 .38300003 .6420001 Z "/>
</symbol>
<symbol id="font_3_2d">
<path d="M .319 .7440001 L .29500003 .74500009 L .272 .74600008 L .252 .74600008 L .15900001 .74600008 L .149 .74200007 L .14400001 .74200007 C .13800001 .74200007 .13366668 .7426667 .131 .7440001 C .11966667 .75 .109000008 .753 .09900001 .753 C .08566668 .753 .07433334 .7483334 .065 .739 C .056333335 .7303334 .052000006 .71900007 .052000006 .70500007 L .055000005 .6840001 L .062000004 .66800007 L .060000007 .64900007 L .057 .62700006 C .057 .615 .06133334 .60433337 .07000001 .595 C .07666667 .58833339 .086666669 .58500006 .099999997 .58500006 C .12533333 .591 .139 .60233339 .141 .619 C .141 .6343334 .15100001 .6476667 .171 .65900006 L .19500001 .665 L .227 .66700008 L .25300003 .66600009 L .289 .66600009 L .31300003 .66700008 C .3056667 .6763334 .30200003 .6873334 .30200003 .70000007 C .30200003 .7180001 .3076667 .73266676 .319 .7440001 M .503 .69400009 C .503 .7060001 .50133338 .71400007 .49800004 .71800008 C .49600003 .72200009 .49166668 .7250001 .485 .72700008 L .47000004 .73100009 L .439 .72300007 L .41300003 .74000009 C .393 .7493334 .37833334 .75466677 .36900003 .75600007 L .345 .75000008 C .33766667 .7480001 .33233337 .7443333 .32900004 .739 L .32000003 .71800008 L .316 .69500008 C .316 .68100008 .32566668 .6693334 .345 .66 C .36433337 .6506667 .375 .6426667 .377 .63600006 L .38900004 .60300007 C .39233337 .59300008 .39466668 .5823334 .39600004 .57100006 C .40533338 .55100008 .41233338 .5260001 .41700004 .49600006 C .41966669 .48000003 .42166666 .465 .423 .45100004 C .42433334 .43700005 .42500005 .421 .425 .403 C .42500005 .37766669 .42400003 .35300002 .42200003 .329 C .42000006 .3056667 .41666673 .28133337 .41200004 .25600005 C .404 .21000003 .3956667 .18133335 .38700003 .17 L .372 .14600002 L .345 .101 C .33300004 .083000008 .32700003 .068333338 .32700003 .057000005 C .32700003 .04433334 .33266668 .033333336 .344 .024 L .36200003 .011 L .37800003 .0030000006 L .39600004 0 C .41333334 0 .42766667 .008666667 .439 .026 C .45033337 .043333334 .456 .06966667 .45600004 .105000007 C .456 .113 .4556667 .12166667 .455 .13100001 C .455 .14033334 .45300005 .15566667 .44900004 .177 L .46900005 .223 L .486 .27500005 C .488 .28633336 .489 .30133335 .48900003 .32 L .48800005 .351 L .48800005 .38600005 L .48800005 .397 C .48800005 .40766669 .48666669 .42000006 .48400004 .43400003 C .48133336 .4486667 .479 .46100006 .477 .47100003 L .467 .53800007 C .467 .5440001 .467 .5503334 .467 .55700007 C .467 .5590001 .46800003 .56500008 .47000004 .57500007 C .4726667 .5856667 .47700004 .59833338 .48300005 .61300006 L .495 .63600006 L .49800004 .65400007 C .49800004 .66200008 .49866668 .66833338 .5 .67300006 L .503 .69400009 M .147 .11600001 C .147 .122 .14566668 .13066668 .143 .142 C .14033334 .154 .13866668 .16200002 .138 .16600001 C .13666667 .17066668 .13333334 .18166667 .128 .19900002 C .126 .20633334 .122 .21466668 .116 .224 C .104 .24266668 .09666667 .2556667 .094 .263 L .089 .296 L .08600001 .33500005 L .08 .41500003 L .082 .476 L .097 .522 L .10700001 .57000008 L .095 .56900009 C .079 .56900009 .06433334 .5806667 .051000004 .60400006 L .033000005 .63100007 L .015000001 .544 C .0050000005 .48800005 0 .44633339 0 .41900004 C 0 .36300005 .002666667 .32300005 .008000001 .29900003 C .010000001 .28966669 .011666667 .28200004 .013 .27600003 C .015 .2706667 .018 .26333336 .022 .254 L .049 .19500001 C .038333339 .16433335 .033000005 .13633333 .033000005 .111 C .033000005 .089666668 .036333339 .07333334 .043 .062000008 C .050333337 .05066667 .062000008 .045 .07800001 .045 C .09133334 .037666669 .10066667 .033333336 .106000009 .032 C .10933334 .032 .11266667 .041 .116 .059 C .119333337 .077 .12866669 .09200001 .14400001 .104 L .147 .11600001 M .33600004 .12200001 C .31733335 .12200001 .30366669 .12233335 .29500003 .12300001 C .28700004 .124333348 .27400003 .12666667 .256 .13000001 C .22600001 .13600002 .20300001 .14333335 .187 .15200001 L .171 .148 L .158 .12900001 C .156 .124333348 .15666667 .11900001 .16 .113000009 C .164 .10766667 .16600001 .10233334 .16600001 .097 L .14400001 .083000008 L .133 .068 C .131 .064 .12933333 .057000009 .128 .047000003 C .128 .035 .13233334 .025666669 .141 .019000002 C .15033333 .0123333339 .15933334 .01 .168 .012 L .201 .016 C .21499999 .018000002 .22566669 .022666669 .23300001 .030000002 L .26000003 .037 L .31100003 .047000003 C .31100003 .052333338 .31500004 .06666667 .323 .09 L .33600004 .12200001 Z "/>
</symbol>
<symbol id="font_3_2c">
<path d="M .65000006 .70800009 L .653 .693 C .653 .68633338 .6536667 .6823334 .65500006 .68100008 C .65500006 .6663334 .64566668 .6506667 .62700006 .63400009 C .609 .61800006 .5976667 .6056667 .593 .597 C .5903333 .583 .5876667 .5683334 .585 .55300006 C .5823333 .53833338 .58100005 .526 .58100005 .51600006 L .579 .42700003 L .579 .39800004 C .579 .29533337 .5826667 .21466668 .59000006 .15600002 C .592 .14400001 .602 .12833335 .62 .10900001 C .6346667 .09433333 .642 .075333338 .642 .052000006 C .642 .033333336 .6383333 .020000002 .631 .012000002 C .625 .0040000008 .616 0 .60400006 0 C .5926667 0 .58133336 .0029999999 .57 .009 C .5586667 .0150000019 .54833337 .024333338 .539 .037000006 C .5323333 .026333338 .5233333 .017333335 .512 .010000002 C .5006667 .0033333339 .4896667 0 .479 0 C .46433334 0 .45033337 .0050000005 .43700005 .015000001 C .42433337 .025666669 .41800008 .03866667 .41800005 .054 L .42000003 .068 L .45600004 .120000008 C .466 .13400002 .47433339 .14866668 .48100005 .164 L .483 .28700004 L .48500005 .39300005 L .48500005 .42800004 L .48600004 .46400003 L .48600004 .50500008 L .48100005 .537 C .48033337 .5416667 .4786667 .54833337 .47600005 .55700007 C .474 .56633338 .47100006 .57633337 .46700005 .587 L .43300004 .63100007 L .41600005 .661 C .41266669 .6696667 .411 .6796667 .411 .69100007 C .411 .705 .41466669 .7176667 .42200003 .72900006 C .43000005 .741 .44066669 .7483334 .45400004 .75100007 C .46533335 .7530001 .479 .75000008 .49500004 .74200007 L .539 .70600005 L .558 .726 C .566 .734 .57366666 .739 .58100005 .74100008 L .597 .744 C .607 .744 .61700007 .7406667 .62700006 .734 C .6376667 .728 .64533337 .71933338 .65000006 .70800009 M .45200003 .14600002 L .42800004 .17900002 L .40700004 .20500002 L .38900004 .22600001 C .38100005 .23400001 .36733339 .24933334 .34800003 .272 C .32933335 .29533337 .30100004 .3306667 .263 .37800003 C .231 .41933338 .199 .4543334 .167 .48300005 L .139 .513 L .12000001 .531 C .11466668 .535 .10766667 .537 .099 .537 C .091 .537 .082333337 .53533336 .07300001 .532 L .052 .52800008 C .044666668 .52800008 .037666669 .53033336 .031000004 .535 C .025 .54033336 .020000002 .5476667 .016000003 .55700007 L .013 .568 L .011 .58900007 C .011 .6010001 .013 .61233338 .017 .623 C .021000004 .6336667 .027000003 .64100006 .035000005 .64500007 L .052 .64900007 L .06600001 .647 C .075333338 .647 .08166667 .6463334 .08500001 .64500007 C .08966667 .64500007 .09333334 .64566668 .09600001 .647 C .1 .649 .10466667 .65500006 .11000001 .665 C .116000007 .675 .12366668 .682 .13300002 .68600007 L .155 .69100007 C .17366667 .69100007 .18933334 .67633339 .20200002 .647 L .21000001 .615 L .21700001 .58800008 C .24100001 .5226667 .2676667 .47000004 .29700003 .43000005 C .30366669 .4206667 .36133338 .36433337 .47000004 .261 L .47000004 .24700001 L .47000004 .23500002 L .46900005 .20600002 L .46600003 .18200001 L .45200003 .14600002 M .162 .46300004 L .16500002 .30600003 L .16800002 .24200002 C .16866668 .23200004 .17 .21933335 .17200002 .20400001 C .17400003 .18866669 .176 .17366667 .178 .15900001 C .18066669 .14500001 .19100003 .12833335 .20900002 .10900001 C .22366667 .09433333 .231 .075333338 .231 .052000006 C .231 .033333336 .22733335 .020000002 .22 .012000002 C .21400003 .0040000008 .20500003 0 .19300002 0 C .18166667 0 .17033334 .0029999999 .15900001 .009 C .14766668 .0150000019 .13733335 .024333338 .12800002 .037000006 C .12133334 .026333338 .112333338 .017333335 .101 .010000002 C .08966667 .0033333339 .07866667 0 .068 0 C .05333334 0 .039333337 .0050000005 .026 .015000001 C .013333333 .025666669 .0069999995 .03866667 .0069999995 .054 L .009 .068 C .011666667 .076 .024333336 .094000007 .047000007 .12200001 C .057000009 .136 .06533334 .15066667 .072000008 .16600001 L .074 .358 L .07700001 .512 C .08233334 .51800009 .08866668 .521 .09600001 .521 C .106000009 .521 .116666678 .51433339 .12800002 .50100007 L .162 .46300004 M .005000001 .63600006 L .0010000002 .64800009 L 0 .66800007 C 0 .6866667 .0036666666 .70300009 .011 .71700009 C .019000002 .731 .027000003 .7396667 .035000005 .74300006 L .056 .74600008 C .07066667 .74600008 .08466667 .7413334 .098000008 .73200008 L .122 .71800008 C .12600002 .7213333 .13366668 .7250001 .14500001 .72900006 L .17000002 .735 L .18600002 .73800006 C .19733334 .7380001 .20800002 .73466667 .21800003 .72800007 C .22866671 .72200009 .23700004 .71166679 .24300003 .697 L .25000004 .666 C .25000004 .6513334 .24000001 .637 .22 .623 L .215 .65300008 C .20899999 .6716667 .20066667 .685 .19 .693 C .18 .70100006 .16800003 .7050001 .15400002 .70500007 C .12733335 .7050001 .106000009 .69000008 .09 .66 L .064 .66300007 L .042000005 .665 C .030000002 .665 .021666667 .66266676 .017 .65800008 L .005000001 .63600006 Z "/>
</symbol>
<use xlink:href="#font_3_17" transform="matrix(36,0,0,-36,21.309844,82.14)" fill="#ee3a2d"/>
<use xlink:href="#font_3_29" transform="matrix(36,0,0,-36,41.829839,81.492)" fill="#ee3a2d"/>
<use xlink:href="#font_3_23" transform="matrix(36,0,0,-36,66.38183,81.708)" fill="#ee3a2d"/>
<use xlink:href="#font_3_2a" transform="matrix(36,0,0,-36,89.45782,81.636)" fill="#ee3a2d"/>
<use xlink:href="#font_3_23" transform="matrix(36,0,0,-36,113.93782,81.708)" fill="#ee3a2d"/>
<use xlink:href="#font_3_32" transform="matrix(36,0,0,-36,137.12183,81.6)" fill="#ee3a2d"/>
<use xlink:href="#font_3_2d" transform="matrix(36,0,0,-36,160.1978,81.96)" fill="#ee3a2d"/>
<use xlink:href="#font_3_2c" transform="matrix(36,0,0,-36,180.28582,81.492)" fill="#ee3a2d"/>
</g>
<clipPath id="cp4">
<path transform="matrix(.24,0,0,.24,0,0)" d="M 303.125 421.875 L 403.125 421.875 L 403.125 521.875 L 303.125 521.875 Z " fill-rule="evenodd"/>
</clipPath>
<g clip-path="url(#cp4)">
<path transform="matrix(.046875,0,0,.046875,72.75,101.25)" d="M 504.4 115.83 C 504.32127 115.59731 504.22795 115.37065 504.12 115.15 C 503.97666 114.719219 503.8 114.30255 503.59 113.9 C 503.4277 113.6499 503.2477 113.41324 503.05 113.19 C 502.82984 112.86145 502.58985 112.54812 502.33 112.25 C 502.09999 112.03 501.81 111.85 501.56 111.65 C 501.2745 111.404148 500.9745 111.17748 500.66 110.97 L 404.4 55.55 C 401.73335 54.0104 399.06666 54.0104 396.4 55.55 L 300.12 111 C 299.8107 111.209629 299.51737 111.43963 299.24 111.69 C 298.96717 111.87332 298.70716 112.07332 298.46 112.29 C 298.19779 112.58281 297.9578 112.89281 297.74 113.22 C 297.56999 113.46 297.34999 113.67 297.19999 113.93 C 296.9975 114.33453 296.8242 114.751209 296.68 115.18 C 296.6 115.41 296.47 115.62 296.4 115.86 C 296.21583 116.54111 296.1225 117.23444 296.12 117.94 L 296.12 223.18 L 215.9 269.37 L 215.9 63.44 C 215.9017 62.730596 215.80837 62.033929 215.62 61.35 C 215.56 61.109998 215.42 60.899999 215.34 60.67 C 215.20006 60.242666 215.02672 59.82933 214.81999 59.429998 C 214.68 59.17 214.45 58.959997 214.28 58.709997 C 214.05986 58.38145 213.81986 58.06812 213.56 57.769998 C 213.31041 57.556459 213.0504 57.356458 212.78 57.17 C 212.49954 56.92665 212.2062 56.699987 211.9 56.489999 L 115.61 1.07 C 112.94334 -.46960069 110.276668 -.46960069 107.61 1.07 L 11.34 56.49 C 11.026872 56.694757 10.733538 56.924757 10.46 57.18 C 10.183939 57.36324 9.920606 57.56324 9.67 57.78 C 9.411024 58.07297 9.174357 58.38297 8.96 58.71 C 8.78 58.96 8.56 59.17 8.41 59.43 C 8.204707 59.828817 8.034707 60.24215 7.8999998 60.670003 C 7.7906935 60.88786 7.6940267 61.11119 7.6099998 61.34 C 7.425248 62.02781 7.331915 62.72781 7.3299996 63.44 L 7.3299996 393.14 C 7.3215878 396.2289 8.654921 398.5456 11.33 400.09004 L 203.83 510.93003 C 204.25867 511.14619 204.702 511.3262 205.16 511.47004 C 205.37001 511.55003 205.57 511.67005 205.79001 511.73005 C 207.15666 512.0962 208.52333 512.0962 209.89002 511.73005 C 210.09001 511.68006 210.26001 511.57005 210.44002 511.51005 C 210.9238 511.35804 211.39046 511.1647 211.84001 510.93006 L 404.4 400.09 C 407.07508 398.54557 408.40843 396.22889 408.4 393.13999 L 408.4 287.88 L 500.63999 234.77 C 503.33454 233.2145 504.66786 230.88117 504.63999 227.77 L 504.63999 117.92 C 504.64555 117.21351 504.56556 116.516849 504.4 115.83 Z M 111.6 17.28 L 191.79001 63.43 L 111.59001 109.61 L 31.41 63.44 L 111.6 17.28 Z M 199.85 77.28 L 199.85 278.6 L 153.32 305.39 L 119.630008 324.79 L 119.630008 123.5 L 166.16 96.71 L 199.85 77.28 Z M 199.85 490.06 L 23.37 388.5 L 23.37 77.32 L 57.06 96.7 L 103.58 123.5 L 103.58 338.68 C 103.600337 338.9826 103.640338 339.2826 103.700008 339.58 C 103.72398 339.9773 103.77732 340.37065 103.86001 340.75999 C 103.961849 341.0705 104.08851 341.37049 104.240009 341.65998 C 104.35158 342.00529 104.49158 342.3386 104.66 342.65998 C 104.84499 342.93153 105.045 343.19154 105.26 343.43998 C 105.46033 343.7354 105.68033 344.0154 105.920009 344.27998 C 106.15001 344.49998 106.44 344.65998 106.69 344.85997 C 106.96328 345.0974 107.24995 345.3174 107.55 345.51997 L 199.74 397.69996 L 199.85 490.06 Z M 207.85 383.89 L 127.79001 338.57 L 211.88 290.16 L 304.14 237.05 L 384.27003 283.18 L 325.47004 316.74 L 207.85 383.89 Z M 392.37 388.46003 L 215.88 490.11 L 215.88 397.8 L 346.6 323.2 L 392.37 297.05003 L 392.37 388.46003 Z M 392.37 269.33003 L 358.68 250 L 312.15 223.20999 L 312.15 131.79 L 345.84 151.18999 L 392.37 178 L 392.37 269.33003 Z M 400.37 164.05002 L 320.16999 117.88002 L 400.37 71.72002 L 480.55 117.87002 L 400.37 164.05002 Z M 408.37 269.33003 L 408.37 178 L 455 151.19 L 488.68 131.79001 L 488.68 223.18001 L 408.37 269.33003 Z " fill="#ee3a2d"/>
</g>
<clipPath id="cp5">
<path transform="matrix(.24,0,0,.24,0,0)" d="M 453.125 415.625 L 553.125 415.625 L 553.125 531.25 L 453.125 531.25 Z " fill-rule="evenodd"/>
</clipPath>
<g clip-path="url(#cp5)">
<path transform="matrix(.05357143,0,0,.054189296,108.75,99.75254)" d="M 356.9 64.3 L 280 64.3 L 224 152.9 L 176 64.299999 L 0 64.299999 L 224 448 L 448 64.3 L 356.9 64.3 Z M 55.69998 96.3 L 109.499988 96.3 L 224 294.5 L 338.4 96.3 L 392.19999 96.3 L 224 384.5 L 55.7 96.3 L 55.69998 96.3 Z " fill="#ee3a2d"/>
</g>
<clipPath id="cp6">
<path transform="matrix(.24,0,0,.24,0,0)" d="M 603.125 431.25 L 703.125 431.25 L 703.125 512.5 L 603.125 512.5 Z " fill-rule="evenodd"/>
</clipPath>
<g clip-path="url(#cp6)">
<path transform="matrix(.037490846,0,0,.038085939,144.75293,103.5)" d="M 301.84 378.92 C 301.54 379.52003 301.24 380 301.84 378.92 Z M 550.97 291.92 C 530.5877 291.9134 511.25437 296.4134 492.96998 305.42 C 487.06999 293.52003 480.96998 283.12004 479.96998 275.32 C 478.76997 266.22 477.46998 260.82 478.86997 250.02 C 480.26997 239.22 486.56999 223.92 486.46998 222.82 C 486.36997 221.72002 485.06999 216.22 472.16999 216.12001 C 459.27 216.02002 448.16999 218.62001 446.87998 222.02 C 444.5979 228.24365 442.83125 234.61032 441.58 241.12001 C 439.28 252.82 415.78999 294.62 402.49 316.42 C 398.09 307.92 394.38999 300.42 393.59 294.42 C 392.38999 285.32 391.09 279.92 392.49 269.12004 C 393.88999 258.32005 400.19 243.02002 400.09 241.92003 C 399.99 240.82004 398.69 235.32003 385.8 235.22003 C 372.90998 235.12004 361.8 237.72003 360.5 241.12003 C 359.2 244.52002 357.8 252.52002 355.2 260.22004 C 352.60005 267.92005 321.31 337.52003 313.12 355.62004 C 308.91999 364.82005 305.32 372.22004 302.72 377.22004 C 302.32 378.02003 302.02 378.52003 301.82 378.92005 C 302.12 378.42005 302.32 377.92005 302.32 378.12007 C 300.12 382.42005 298.82 384.82008 298.82 384.82008 L 298.82 384.92008 C 297.12 388.1201 295.22 391.02009 294.32 391.02009 C 293.72 391.02009 292.42 382.6201 294.62 371.1201 C 299.32 346.92008 310.41999 309.3201 310.32 308.02009 C 310.22 307.32008 312.42 300.82008 303.02003 297.32008 C 293.92 294.02009 290.62004 299.52009 289.82 299.52009 C 289.02 299.52009 288.42 301.52009 288.42 301.52009 C 288.42 301.52009 298.52003 259.1201 269.03004 259.1201 C 250.63004 259.1201 225.03003 279.3201 212.45003 297.6201 C 204.55004 301.92008 187.45003 311.2201 169.45003 321.1201 C 162.55004 324.92008 155.45003 328.8201 148.75003 332.52009 C 148.25003 332.02009 147.85004 331.52009 147.35004 331.02009 C 111.560039 292.82008 45.480035 265.82008 48.280038 214.52008 C 49.280038 195.82009 55.780038 146.72008 175.35004 87.12008 C 273.35005 38.32008 351.70005 51.720079 365.19004 81.52008 C 384.59004 124.02008 323.30006 203.12009 221.53003 214.52008 C 182.74002 218.82009 162.35004 203.82009 157.25003 198.22008 C 151.95003 192.32009 151.15003 192.02008 149.15003 193.12007 C 145.85002 194.92008 147.95003 200.12007 149.15003 203.22008 C 152.15003 211.12007 164.65003 225.12007 185.94004 232.12007 C 204.64003 238.22008 250.12003 241.62007 305.11006 220.32007 C 366.89006 196.52007 414.98005 130.22006 400.88005 74.72006 C 386.52 18.32 293 -.18 204.57 31.22 C 151.88 49.92 94.90001 79.32 53.910005 117.62 C 5.220005 163.22 -2.5699959 202.92002 .6300049 219.52 C 12.020005 278.42 93.200008 316.82 125.69 345.22 C 124.090007 346.12 122.590007 346.92 121.19 347.72 C 104.9 355.82 43.010004 388.22 27.520005 422.41999 C 10.020004 461.21998 30.420004 489.02 43.810007 492.81999 C 85.600009 504.41999 128.39002 483.52 151.38 449.21998 C 174.37 414.91996 171.58 370.11997 160.98001 349.71998 C 160.88 349.41999 160.68001 349.21998 160.58002 348.91999 C 164.78002 346.41999 169.08002 343.91999 173.38002 341.41999 C 181.67002 336.52 189.77002 332.02 196.87003 328.12 C 192.87003 338.91999 189.97003 351.91999 188.47003 370.72 C 186.67003 392.72 195.77004 421.22 207.57004 432.42 C 212.77004 437.32 219.06005 437.42 222.96004 437.42 C 236.76004 437.42 242.96004 426.02003 249.85004 412.42 C 258.35005 395.82 265.85005 376.52003 265.85005 376.52003 C 265.85005 376.52003 256.45005 428.72004 282.15003 428.72004 C 291.54005 428.72004 300.94004 416.62004 305.15003 410.42005 L 305.15003 410.52006 C 305.15003 410.52006 305.35005 410.12007 305.85005 409.32005 C 306.85005 407.82005 307.35005 406.92005 307.35005 406.92005 L 307.35005 406.62007 C 311.15003 400.12007 319.45005 385.22007 331.94004 360.62007 C 348.14006 328.82008 363.63005 289.12007 363.63005 289.12007 C 365.12849 297.8566 367.19517 306.45658 369.83006 314.92005 C 372.63005 324.42005 378.53007 334.82005 383.23005 344.92005 C 379.43006 350.12007 377.13005 353.12007 377.13005 353.12007 C 377.13758 353.19963 377.1709 353.2663 377.23005 353.32008 C 374.23005 357.32008 370.83006 361.62007 367.33006 365.82008 C 354.54005 381.02009 339.33006 398.42008 337.33006 403.42008 C 334.93006 409.32008 335.53007 413.72007 340.13005 417.1201 C 343.53004 419.7201 349.53004 420.1201 355.82005 419.6201 C 367.32005 418.8201 375.42005 416.02009 379.32005 414.2201 C 386.54493 411.62937 393.2749 408.09605 399.51005 403.6201 C 412.01005 394.42008 419.61006 381.2201 418.91004 363.8201 C 418.51005 354.2201 415.41004 344.6201 411.61006 335.6201 C 412.71006 334.02009 413.91004 332.3201 415.01005 330.6201 C 434.8 301.72 450.1 270 450.1 270 C 451.59846 278.7365 453.66514 287.33653 456.30003 295.8 C 458.7 303.9 463.39 312.8 467.69004 321.5 C 449.10005 336.6 437.60005 354.1 433.60005 365.6 C 426.20005 386.9 432.00004 396.5 442.90003 398.7 C 447.80003 399.7 454.80003 397.40003 460.00004 395.2 C 467.76863 392.6124 474.9653 388.9124 481.59004 384.1 C 494.09004 374.9 506.18003 362 505.38005 344.5 C 505.08006 336.6 502.88005 328.7 499.98005 321.1 C 515.68008 314.5 536.07009 310.9 562.07009 313.9 C 617.75009 320.4 628.6501 355.19999 626.55007 369.69999 C 624.45 384.19999 612.75009 392.3 608.85006 394.69999 C 604.95 397.09999 603.75009 397.99998 604.05007 399.8 C 604.55007 402.4 606.35006 402.3 609.65 401.69999 C 614.25 400.9 638.84 389.9 639.94 362.99998 C 641.54 328.99998 608.85 291.59999 550.94 291.89997 L 550.97 291.92 Z M 121.78998 436.62 C 103.39998 456.72 77.599979 464.32 66.50998 457.91999 C 54.61 451 59.31 421.42 82 400 C 95.8 387 113.59 375 125.39 367.6 C 128.09 366 131.99 363.6 136.79 360.7 C 137.59 360.2 137.98999 360 137.98999 360 C 138.88999 359.4 139.88999 358.9 140.88999 358.3 C 149.17998 388.69999 141.18999 415.5 121.789989 436.59999 L 121.78998 436.62 Z M 256.14997 345.22 C 249.74997 360.92 236.25997 400.92 228.05997 398.82 C 221.05997 397.02003 216.75997 366.52003 226.65998 336.52003 C 231.65998 321.42 242.25998 303.42 248.55997 296.42 C 258.64997 285.12004 269.74998 281.52003 272.34999 286.02003 C 275.84999 291.92 260.14997 335.42 256.14997 345.22004 L 256.14997 345.22 Z M 367.14997 398.22 C 364.44996 399.62 361.94996 400.52 360.74998 399.82 C 359.84999 399.32 361.84999 397.42 361.84999 397.42 C 361.84999 397.42 375.74998 382.52003 381.24998 375.72 C 384.44999 371.72 388.14997 367.02 392.13999 361.82 C 392.13999 362.32 392.24 362.82 392.24 363.42 C 392.11 381.32 374.91999 393.42 367.12 398.22 L 367.14997 398.22 Z M 452.72999 378.72 C 450.72999 377.32 451.02998 372.62 457.72999 358.02 C 460.33 352.31999 466.31999 342.72 476.72999 333.52 C 477.91526 337.0229 478.54859 340.62287 478.62998 344.31999 C 478.52998 366.81999 462.42997 375.21998 452.74 378.71998 L 452.72999 378.72 Z " fill="#ee3a2d"/>
</g>
<clipPath id="cp7">
<path transform="matrix(.24,0,0,.24,0,0)" d="M 753.125 428.125 L 853.125 428.125 L 853.125 518.75 L 753.125 518.75 Z " fill-rule="evenodd"/>
</clipPath>
<g clip-path="url(#cp7)">
<path transform="matrix(.041656496,0,0,.04248047,180.75293,102.75)" d="M 333.5 201.4 C 333.5 179.29999 317.9 167.09999 290.5 167.09999 L 240.1 167.09999 L 240.1 238.29999 L 282.6 238.29999 C 315.4 238.2 333.5 225 333.5 201.4 Z M 517 188.6 C 507.5 157.70001 506.1 119.8 507.2 90.50001 C 508.30003 60.000009 484.5 32.000009 452.5 32.000009 L 123.7 32.000009 C 91.6 32.000009 67.899997 60.100008 69 90.50001 C 70 119.8 68.7 157.70001 59.2 188.6 C 49.6 219.6 33.5 239.20001 7 241.70001 L 7 270.2 C 33.4 272.7 49.6 292.30003 59.2 323.30003 C 68.7 354.2 70.1 392.10005 69 421.40003 C 67.9 451.90003 91.7 479.90003 123.7 479.90003 L 452.40003 479.90003 C 484.50004 479.90003 508.2 451.80003 507.10005 421.40003 C 506.10005 392.10005 507.40003 354.2 516.9 323.30003 C 526.5 292.30003 542.60006 272.7 569 270.2 L 569 241.70001 C 542.7 239.2 526.5 219.6 517 188.6 Z M 300.2 375.1 L 202.30002 375.1 L 202.30002 136.8 L 299.7 136.8 C 343 136.8 371.40003 160.2 371.40003 196.20001 C 371.40003 221.50002 352.30003 244.1 327.90003 248.00002 L 327.90003 249.30002 C 361.10005 252.90003 383.40003 275.90003 383.40003 307.6 C 383.4 349.7 352.1 375.1 300.2 375.1 Z M 290.2 266.4 L 240.1 266.4 L 240.1 344.8 L 292.4 344.8 C 326.6 344.8 344.69999 331.09999 344.69999 305.3 C 344.7 279.6 326.1 266.4 290.2 266.4 Z " fill="#ee3a2d"/>
</g>
</g>
</svg>
